<svg width="20" height="20" viewBox="0 0 20 20" fill="none" xmlns="http://www.w3.org/2000/svg">
<g clip-path="url(#clip0_24_805)">
<path d="M12.5 5.83331H15C15.5472 5.83331 16.089 5.94109 16.5946 6.15048C17.1001 6.35988 17.5594 6.66679 17.9463 7.0537C18.3332 7.44061 18.6401 7.89994 18.8495 8.40547C19.0589 8.91099 19.1667 9.45281 19.1667 9.99998C19.1667 10.5472 19.0589 11.089 18.8495 11.5945C18.6401 12.1 18.3332 12.5593 17.9463 12.9463C17.5594 13.3332 17.1001 13.6401 16.5946 13.8495C16.089 14.0589 15.5472 14.1666 15 14.1666H12.5M7.50004 14.1666H5.00004C4.45287 14.1666 3.91105 14.0589 3.40553 13.8495C2.9 13.6401 2.44067 13.3332 2.05376 12.9463C1.27236 12.1649 0.833374 11.105 0.833374 9.99998C0.833374 8.89491 1.27236 7.8351 2.05376 7.0537C2.83516 6.2723 3.89497 5.83331 5.00004 5.83331H7.50004M6.66671 9.99998H13.3334" stroke="#1E1E1E" stroke-width="2" stroke-linecap="round" stroke-linejoin="round"/>
</g>
<defs>
<clipPath id="clip0_24_805">
<rect width="20" height="20" fill="white"/>
</clipPath>
</defs>
</svg>
